<svg width="307" height="80" viewBox="0 0 307 80" fill="none" xmlns="http://www.w3.org/2000/svg">
<g filter="url(#filter0_d)">
<rect x="2" y="1" width="303" height="76" rx="3" fill="#FAFAFA"/>
<rect x="2.5" y="1.5" width="302" height="75" rx="2.5" stroke="#D6D6D6"/>
</g>
<path d="M237.622 55.446V50.483H238.379V51.2354C238.572 50.8834 238.749 50.6512 238.911 50.5391C239.077 50.4269 239.257 50.3708 239.453 50.3708C239.737 50.3708 240.025 50.4612 240.318 50.6419L240.028 51.4223C239.823 51.3008 239.617 51.2401 239.411 51.2401C239.228 51.2401 239.062 51.2962 238.916 51.4083C238.77 51.5174 238.665 51.67 238.603 51.8663C238.509 52.1654 238.463 52.4925 238.463 52.8477V55.446H237.622ZM244.216 53.8478L245.085 53.9553C244.948 54.4631 244.694 54.8572 244.323 55.1376C243.952 55.418 243.479 55.5582 242.902 55.5582C242.176 55.5582 241.6 55.3354 241.173 54.8899C240.75 54.4413 240.538 53.8135 240.538 53.0066C240.538 52.1716 240.753 51.5236 241.183 51.0625C241.613 50.6014 242.17 50.3708 242.856 50.3708C243.519 50.3708 244.061 50.5967 244.482 51.0485C244.903 51.5002 245.113 52.1358 245.113 52.9552C245.113 53.005 245.111 53.0798 245.108 53.1795H241.407C241.438 53.7247 241.592 54.1422 241.87 54.4319C242.147 54.7217 242.493 54.8666 242.907 54.8666C243.215 54.8666 243.479 54.7856 243.697 54.6235C243.915 54.4615 244.088 54.2029 244.216 53.8478ZM241.454 52.4878H244.225C244.188 52.0704 244.082 51.7573 243.907 51.5485C243.639 51.2245 243.292 51.0625 242.865 51.0625C242.479 51.0625 242.153 51.1918 241.888 51.4504C241.627 51.709 241.482 52.0548 241.454 52.4878ZM251.141 53.044L252.048 53.273C251.858 54.0176 251.515 54.5862 251.02 54.9787C250.528 55.3682 249.925 55.5629 249.211 55.5629C248.473 55.5629 247.872 55.4133 247.407 55.1142C246.946 54.812 246.594 54.3759 246.351 53.8057C246.111 53.2356 245.991 52.6234 245.991 51.9691C245.991 51.2557 246.127 50.6341 246.398 50.1045C246.672 49.5717 247.06 49.1683 247.562 48.8941C248.066 48.6168 248.621 48.4782 249.225 48.4782C249.911 48.4782 250.487 48.6526 250.954 49.0016C251.422 49.3505 251.747 49.8412 251.931 50.4737L251.039 50.684C250.88 50.1855 250.649 49.8225 250.347 49.5951C250.045 49.3676 249.665 49.2539 249.207 49.2539C248.68 49.2539 248.239 49.3801 247.884 49.6325C247.532 49.8848 247.284 50.2244 247.141 50.6512C246.998 51.075 246.926 51.5127 246.926 51.9644C246.926 52.547 247.01 53.0564 247.178 53.4926C247.35 53.9257 247.615 54.2497 247.973 54.4647C248.331 54.6796 248.719 54.7871 249.137 54.7871C249.644 54.7871 250.074 54.6407 250.426 54.3478C250.778 54.055 251.017 53.6203 251.141 53.044ZM252.417 55.446L255.048 48.595H256.025L258.829 55.446H257.796L256.997 53.3711H254.132L253.38 55.446H252.417ZM254.394 52.6327H256.717L256.002 50.7354C255.784 50.159 255.622 49.6854 255.516 49.3147C255.428 49.754 255.305 50.1901 255.146 50.6232L254.394 52.6327ZM259.553 55.446V48.595H262.138C262.593 48.595 262.94 48.6168 263.18 48.6604C263.516 48.7165 263.798 48.824 264.026 48.9829C264.253 49.1387 264.435 49.3583 264.572 49.6418C264.713 49.9253 264.783 50.2369 264.783 50.5765C264.783 51.1591 264.597 51.6529 264.227 52.0579C263.856 52.4598 263.186 52.6608 262.217 52.6608H260.46V55.446H259.553ZM260.46 51.8523H262.231C262.817 51.8523 263.233 51.7432 263.479 51.5251C263.725 51.3071 263.848 51.0002 263.848 50.6045C263.848 50.3179 263.775 50.0733 263.628 49.8708C263.485 49.6652 263.295 49.5297 263.058 49.4642C262.906 49.4237 262.624 49.4035 262.212 49.4035H260.46V51.8523ZM267.68 55.446V49.4035H265.423V48.595H270.853V49.4035H268.587V55.446H267.68ZM276.676 53.044L277.583 53.273C277.393 54.0176 277.05 54.5862 276.555 54.9787C276.063 55.3682 275.46 55.5629 274.746 55.5629C274.008 55.5629 273.407 55.4133 272.942 55.1142C272.481 54.812 272.129 54.3759 271.886 53.8057C271.646 53.2356 271.526 52.6234 271.526 51.9691C271.526 51.2557 271.662 50.6341 271.933 50.1045C272.207 49.5717 272.595 49.1683 273.097 48.8941C273.601 48.6168 274.156 48.4782 274.76 48.4782C275.446 48.4782 276.022 48.6526 276.489 49.0016C276.957 49.3505 277.282 49.8412 277.466 50.4737L276.573 50.684C276.415 50.1855 276.184 49.8225 275.882 49.5951C275.58 49.3676 275.2 49.2539 274.742 49.2539C274.215 49.2539 273.774 49.3801 273.419 49.6325C273.067 49.8848 272.819 50.2244 272.676 50.6512C272.533 51.075 272.461 51.5127 272.461 51.9644C272.461 52.547 272.545 53.0564 272.713 53.4926C272.885 53.9257 273.15 54.2497 273.508 54.4647C273.866 54.6796 274.254 54.7871 274.671 54.7871C275.179 54.7871 275.609 54.6407 275.961 54.3478C276.313 54.055 276.552 53.6203 276.676 53.044ZM278.733 55.446V48.595H279.639V51.4083H283.2V48.595H284.107V55.446H283.2V52.2168H279.639V55.446H278.733ZM284.869 55.446L287.5 48.595H288.476L291.28 55.446H290.248L289.448 53.3711H286.584L285.831 55.446H284.869ZM286.845 52.6327H289.168L288.453 50.7354C288.235 50.159 288.073 49.6854 287.967 49.3147C287.88 49.754 287.757 50.1901 287.598 50.6232L286.845 52.6327Z" fill="#A5A5A5"/>
<path d="M237.628 66.9784V61.1477H239.828C240.215 61.1477 240.511 61.1663 240.715 61.2034C241.001 61.2511 241.241 61.3426 241.435 61.4778C241.628 61.6104 241.783 61.7973 241.9 62.0386C242.019 62.2799 242.079 62.5451 242.079 62.8341C242.079 63.3299 241.921 63.7502 241.606 64.0949C241.29 64.4369 240.72 64.6079 239.895 64.6079H238.4V66.9784H237.628ZM238.4 63.9199H239.907C240.406 63.9199 240.76 63.8271 240.969 63.6415C241.179 63.4559 241.284 63.1947 241.284 62.8579C241.284 62.614 241.221 62.4059 241.097 62.2335C240.975 62.0585 240.813 61.9432 240.611 61.8875C240.481 61.853 240.241 61.8358 239.891 61.8358H238.4V63.9199ZM242.962 66.9784V62.7545H243.606V63.3949C243.771 63.0952 243.922 62.8977 244.06 62.8023C244.2 62.7068 244.354 62.6591 244.521 62.6591C244.762 62.6591 245.008 62.736 245.257 62.8898L245.01 63.554C244.835 63.4506 244.66 63.3988 244.485 63.3988C244.329 63.3988 244.188 63.4466 244.064 63.542C243.939 63.6348 243.85 63.7648 243.797 63.9318C243.718 64.1863 243.678 64.4648 243.678 64.767V66.9784H242.962ZM245.686 61.971V61.1477H246.402V61.971H245.686ZM245.686 66.9784V62.7545H246.402V66.9784H245.686ZM248.669 66.9784L247.062 62.7545H247.818L248.725 65.2841C248.823 65.5572 248.913 65.8409 248.995 66.1352C249.059 65.9125 249.148 65.6447 249.262 65.3318L250.201 62.7545H250.936L249.337 66.9784H248.669ZM254.325 66.4574C254.06 66.6827 253.804 66.8418 253.557 66.9346C253.313 67.0274 253.051 67.0738 252.77 67.0738C252.306 67.0738 251.949 66.9612 251.7 66.7358C251.451 66.5077 251.326 66.2174 251.326 65.8648C251.326 65.6579 251.373 65.4697 251.465 65.3C251.561 65.1276 251.684 64.9898 251.835 64.8863C251.989 64.7829 252.161 64.7047 252.352 64.6517C252.493 64.6146 252.705 64.5788 252.989 64.5443C253.567 64.4754 253.992 64.3932 254.265 64.2977C254.268 64.1996 254.269 64.1373 254.269 64.1108C254.269 63.8191 254.202 63.6136 254.066 63.4943C253.884 63.3326 253.612 63.2517 253.251 63.2517C252.914 63.2517 252.665 63.3113 252.503 63.4307C252.344 63.5473 252.226 63.7555 252.149 64.0551L251.449 63.9596C251.513 63.66 251.618 63.4187 251.764 63.2358C251.909 63.0502 252.12 62.9083 252.396 62.8102C252.672 62.7095 252.991 62.6591 253.355 62.6591C253.715 62.6591 254.008 62.7015 254.234 62.7863C254.459 62.8712 254.625 62.9786 254.731 63.1085C254.837 63.2358 254.911 63.3975 254.953 63.5937C254.977 63.7157 254.989 63.9358 254.989 64.254V65.2085C254.989 65.874 255.004 66.2956 255.033 66.4733C255.065 66.6483 255.126 66.8167 255.216 66.9784H254.468C254.394 66.8299 254.346 66.6562 254.325 66.4574ZM254.265 64.8585C254.005 64.9646 253.616 65.0547 253.096 65.129C252.802 65.1714 252.594 65.2191 252.472 65.2721C252.35 65.3252 252.255 65.4034 252.189 65.5068C252.123 65.6076 252.09 65.7202 252.09 65.8449C252.09 66.0358 252.161 66.1949 252.305 66.3221C252.45 66.4494 252.662 66.5131 252.941 66.5131C253.217 66.5131 253.462 66.4534 253.677 66.3341C253.891 66.2121 254.049 66.0464 254.15 65.8369C254.227 65.6752 254.265 65.4365 254.265 65.121V64.8585ZM258.859 65.4312L259.563 65.5227C259.486 66.0079 259.289 66.3884 258.97 66.6642C258.655 66.9373 258.266 67.0738 257.805 67.0738C257.227 67.0738 256.762 66.8856 256.409 66.5091C256.059 66.1299 255.884 65.5877 255.884 64.8824C255.884 64.4263 255.96 64.0273 256.111 63.6852C256.262 63.3432 256.491 63.0873 256.799 62.9176C257.109 62.7452 257.446 62.6591 257.809 62.6591C258.268 62.6591 258.643 62.7757 258.935 63.0091C259.226 63.2398 259.413 63.5685 259.495 63.9954L258.799 64.1028C258.733 63.8191 258.615 63.6057 258.445 63.4625C258.278 63.3193 258.076 63.2477 257.837 63.2477C257.476 63.2477 257.183 63.3776 256.958 63.6375C256.733 63.8947 256.62 64.303 256.62 64.8625C256.62 65.4299 256.729 65.8422 256.946 66.0994C257.163 66.3566 257.447 66.4852 257.797 66.4852C258.078 66.4852 258.313 66.399 258.501 66.2267C258.689 66.0543 258.809 65.7892 258.859 65.4312ZM260.144 68.6051L260.064 67.9329C260.221 67.9754 260.357 67.9966 260.474 67.9966C260.633 67.9966 260.76 67.9701 260.856 67.917C260.951 67.864 261.029 67.7898 261.09 67.6943C261.135 67.6227 261.208 67.4451 261.309 67.1613C261.322 67.1216 261.344 67.0632 261.373 66.9863L259.77 62.7545H260.541L261.42 65.2006C261.534 65.5108 261.637 65.8369 261.727 66.179C261.809 65.8502 261.907 65.5293 262.021 65.2165L262.924 62.7545H263.64L262.033 67.05C261.861 67.514 261.727 67.8335 261.631 68.0085C261.504 68.2445 261.358 68.4168 261.194 68.5256C261.029 68.6369 260.833 68.6926 260.605 68.6926C260.467 68.6926 260.313 68.6634 260.144 68.6051ZM266.237 65.2284V64.5085H268.436V65.2284H266.237ZM272.919 66.9784V61.8358H270.998V61.1477H275.619V61.8358H273.69V66.9784H272.919ZM278.308 65.6182L279.048 65.7096C278.931 66.1418 278.715 66.4773 278.399 66.7159C278.084 66.9545 277.681 67.0738 277.19 67.0738C276.573 67.0738 276.082 66.8843 275.719 66.5051C275.358 66.1233 275.178 65.589 275.178 64.9023C275.178 64.1917 275.361 63.6401 275.727 63.2477C276.093 62.8553 276.567 62.6591 277.151 62.6591C277.715 62.6591 278.177 62.8513 278.535 63.2358C278.893 63.6202 279.072 64.1612 279.072 64.8585C279.072 64.9009 279.07 64.9646 279.068 65.0494H275.918C275.944 65.5134 276.075 65.8687 276.311 66.1153C276.547 66.3619 276.842 66.4852 277.194 66.4852C277.457 66.4852 277.681 66.4163 277.866 66.2784C278.052 66.1405 278.199 65.9204 278.308 65.6182ZM275.957 64.4608H278.316C278.284 64.1055 278.194 63.839 278.045 63.6613C277.817 63.3856 277.522 63.2477 277.159 63.2477C276.83 63.2477 276.553 63.3577 276.327 63.5778C276.105 63.7979 275.981 64.0922 275.957 64.4608ZM279.943 66.9784V62.7545H280.587V63.3949C280.751 63.0952 280.902 62.8977 281.04 62.8023C281.181 62.7068 281.335 62.6591 281.502 62.6591C281.743 62.6591 281.988 62.736 282.237 62.8898L281.991 63.554C281.816 63.4506 281.641 63.3988 281.466 63.3988C281.309 63.3988 281.169 63.4466 281.044 63.542C280.92 63.6348 280.831 63.7648 280.778 63.9318C280.698 64.1863 280.659 64.4648 280.659 64.767V66.9784H279.943ZM282.663 66.9784V62.7545H283.303V63.3471C283.436 63.1403 283.612 62.9746 283.832 62.85C284.052 62.7227 284.303 62.6591 284.584 62.6591C284.897 62.6591 285.153 62.724 285.352 62.854C285.553 62.9839 285.695 63.1655 285.777 63.3988C286.111 62.9057 286.546 62.6591 287.082 62.6591C287.501 62.6591 287.823 62.7757 288.048 63.0091C288.274 63.2398 288.386 63.5964 288.386 64.079V66.9784H287.674V64.3176C287.674 64.0312 287.651 63.8257 287.603 63.7011C287.558 63.5738 287.474 63.4718 287.352 63.3949C287.23 63.318 287.087 63.2795 286.923 63.2795C286.626 63.2795 286.379 63.379 286.183 63.5778C285.987 63.774 285.889 64.0896 285.889 64.5244V66.9784H285.173V64.2341C285.173 63.9159 285.114 63.6773 284.998 63.5182C284.881 63.3591 284.69 63.2795 284.425 63.2795C284.223 63.2795 284.037 63.3326 283.864 63.4386C283.695 63.5447 283.571 63.6998 283.494 63.904C283.417 64.1081 283.379 64.4024 283.379 64.7869V66.9784H282.663ZM289.162 65.7176L289.87 65.6062C289.91 65.8899 290.02 66.1074 290.2 66.2585C290.383 66.4096 290.637 66.4852 290.964 66.4852C291.292 66.4852 291.536 66.4189 291.695 66.2863C291.855 66.1511 291.934 65.9934 291.934 65.8131C291.934 65.6513 291.864 65.524 291.723 65.4312C291.625 65.3676 291.381 65.2867 290.991 65.1886C290.466 65.056 290.102 64.942 289.898 64.8466C289.696 64.7485 289.542 64.6146 289.436 64.4449C289.333 64.2725 289.281 64.0829 289.281 63.8761C289.281 63.6879 289.324 63.5142 289.409 63.3551C289.496 63.1934 289.614 63.0595 289.762 62.9534C289.874 62.8712 290.025 62.8023 290.216 62.7466C290.409 62.6882 290.616 62.6591 290.836 62.6591C291.168 62.6591 291.458 62.7068 291.707 62.8023C291.959 62.8977 292.145 63.0276 292.264 63.192C292.384 63.3538 292.466 63.5712 292.511 63.8443L291.811 63.9398C291.779 63.7223 291.686 63.5526 291.532 63.4307C291.381 63.3087 291.166 63.2477 290.888 63.2477C290.559 63.2477 290.325 63.3021 290.184 63.4108C290.044 63.5195 289.973 63.6468 289.973 63.7926C289.973 63.8854 290.002 63.9689 290.061 64.0432C290.119 64.1201 290.211 64.1837 290.335 64.2341C290.407 64.2606 290.618 64.3216 290.968 64.417C291.474 64.5523 291.827 64.6636 292.026 64.7511C292.227 64.836 292.385 64.9606 292.499 65.125C292.613 65.2894 292.67 65.4935 292.67 65.7375C292.67 65.9761 292.6 66.2015 292.459 66.4136C292.321 66.6231 292.121 66.7862 291.859 66.9028C291.596 67.0168 291.299 67.0738 290.968 67.0738C290.419 67.0738 290 66.9598 289.711 66.7318C289.424 66.5038 289.241 66.1657 289.162 65.7176Z" fill="#A5A5A5"/>
<g filter="url(#filter1_d)">
<path fill-rule="evenodd" clip-rule="evenodd" d="M261.43 19.9023C262.455 19.4359 263.662 19.1416 265.006 19.2744C268.858 19.6552 270.771 22.1871 271.114 22.6871L267.284 26.6108L279.15 26.7091L278.995 14.612L276.229 17.4464C275.845 16.9239 272.033 12 264.796 12C261.613 12 259.058 12.942 257.16 14.0413L261.43 19.9023Z" fill="#2B4CB9"/>
</g>
<g filter="url(#filter2_d)">
<path fill-rule="evenodd" clip-rule="evenodd" d="M251.975 12.1957L254.853 15.005C254.467 15.2845 249.385 19.1014 249.385 26.4537C249.385 27.4582 249.479 28.4002 249.642 29.2788L256.989 29.0617C256.706 28.2154 256.558 27.2691 256.659 26.2437C257.046 22.3299 259.653 20.4182 260.094 20.1208L263.974 23.907L264.072 12.0408L251.975 12.1957Z" fill="#5A96F6"/>
</g>
<g filter="url(#filter3_d)">
<path fill-rule="evenodd" clip-rule="evenodd" d="M252.343 36.4354L249.577 39.2698L249.422 27.1727L261.288 27.271L257.458 31.1947C257.801 31.6947 259.713 34.2266 263.566 34.6074C267.845 35.0303 270.746 31.1196 270.746 31.1196L275.441 36.4505C275.441 36.4505 271.419 41.8818 263.776 41.8818C256.539 41.8818 252.727 36.9579 252.343 36.4354Z" fill="#BEBEBE"/>
</g>
<path d="M56.5635 45H55.251V35.0469H56.5635V45ZM58.8604 37.8496L58.1426 37.3574C58.5664 36.765 58.7852 36.1406 58.7988 35.4844V34.5H60.0498V35.3887C60.0452 35.8444 59.9313 36.3001 59.708 36.7559C59.4893 37.207 59.2067 37.5716 58.8604 37.8496ZM62.627 37.6035L62.6611 38.4238C63.2035 37.7858 63.9349 37.4668 64.8555 37.4668C65.89 37.4668 66.5941 37.8633 66.9678 38.6562C67.2139 38.3008 67.5329 38.0137 67.9248 37.7949C68.3213 37.5762 68.7884 37.4668 69.3262 37.4668C70.9486 37.4668 71.7734 38.3258 71.8008 40.0439V45H70.5361V40.1191C70.5361 39.5905 70.4154 39.1963 70.1738 38.9365C69.9323 38.6722 69.5267 38.54 68.957 38.54C68.4876 38.54 68.098 38.6813 67.7881 38.9639C67.4782 39.2419 67.2982 39.6178 67.248 40.0918V45H65.9766V40.1533C65.9766 39.0778 65.4502 38.54 64.3975 38.54C63.568 38.54 63.0007 38.8932 62.6953 39.5996V45H61.4307V37.6035H62.627ZM78.3838 37.6035L78.4248 38.5332C78.9899 37.8223 79.7282 37.4668 80.6396 37.4668C82.2028 37.4668 82.9912 38.3486 83.0049 40.1123V45H81.7402V40.1055C81.7357 39.5723 81.6126 39.1781 81.3711 38.9229C81.1341 38.6676 80.7627 38.54 80.2568 38.54C79.8467 38.54 79.4867 38.6494 79.1768 38.8682C78.8669 39.0869 78.6253 39.374 78.4521 39.7295V45H77.1875V37.6035H78.3838ZM84.5771 41.2334C84.5771 40.5088 84.7184 39.8571 85.001 39.2783C85.2881 38.6995 85.6846 38.2529 86.1904 37.9385C86.7008 37.624 87.2819 37.4668 87.9336 37.4668C88.9408 37.4668 89.7542 37.8154 90.374 38.5127C90.9984 39.21 91.3105 40.1374 91.3105 41.2949V41.3838C91.3105 42.1038 91.1715 42.751 90.8936 43.3252C90.6201 43.8949 90.2259 44.3392 89.7109 44.6582C89.2005 44.9772 88.6126 45.1367 87.9473 45.1367C86.9447 45.1367 86.1312 44.7881 85.5068 44.0908C84.887 43.3936 84.5771 42.4707 84.5771 41.3223V41.2334ZM85.8486 41.3838C85.8486 42.2041 86.0378 42.8626 86.416 43.3594C86.7988 43.8561 87.3092 44.1045 87.9473 44.1045C88.5898 44.1045 89.1003 43.8538 89.4785 43.3525C89.8568 42.8467 90.0459 42.1403 90.0459 41.2334C90.0459 40.4222 89.8522 39.766 89.4648 39.2646C89.082 38.7588 88.5716 38.5059 87.9336 38.5059C87.3092 38.5059 86.8057 38.7542 86.4229 39.251C86.04 39.7477 85.8486 40.4587 85.8486 41.3838ZM94.6123 35.8125V37.6035H95.9932V38.5811H94.6123V43.168C94.6123 43.4642 94.6738 43.6875 94.7969 43.8379C94.9199 43.9837 95.1296 44.0566 95.4258 44.0566C95.5716 44.0566 95.7721 44.0293 96.0273 43.9746V45C95.6947 45.0911 95.3711 45.1367 95.0566 45.1367C94.4915 45.1367 94.0654 44.9658 93.7783 44.624C93.4912 44.2822 93.3477 43.7969 93.3477 43.168V38.5811H92.001V37.6035H93.3477V35.8125H94.6123ZM105.516 45C105.443 44.8542 105.383 44.5944 105.338 44.2207C104.75 44.8314 104.048 45.1367 103.232 45.1367C102.503 45.1367 101.904 44.9316 101.435 44.5215C100.97 44.1068 100.737 43.5827 100.737 42.9492C100.737 42.179 101.029 41.582 101.612 41.1582C102.2 40.7298 103.025 40.5156 104.087 40.5156H105.317V39.9346C105.317 39.4925 105.185 39.1416 104.921 38.8818C104.657 38.6175 104.267 38.4854 103.752 38.4854C103.301 38.4854 102.923 38.5993 102.617 38.8271C102.312 39.055 102.159 39.3307 102.159 39.6543H100.888C100.888 39.2852 101.018 38.9297 101.277 38.5879C101.542 38.2415 101.897 37.9681 102.344 37.7676C102.795 37.5671 103.289 37.4668 103.827 37.4668C104.679 37.4668 105.347 37.681 105.83 38.1094C106.313 38.5332 106.564 39.1188 106.582 39.8662V43.2705C106.582 43.9495 106.669 44.4896 106.842 44.8906V45H105.516ZM103.417 44.0361C103.813 44.0361 104.189 43.9336 104.545 43.7285C104.9 43.5234 105.158 43.2568 105.317 42.9287V41.4111H104.326C102.777 41.4111 102.002 41.8646 102.002 42.7715C102.002 43.168 102.134 43.4779 102.398 43.7012C102.663 43.9245 103.002 44.0361 103.417 44.0361ZM115.612 38.7383C115.421 38.7064 115.214 38.6904 114.99 38.6904C114.161 38.6904 113.598 39.0436 113.302 39.75V45H112.037V37.6035H113.268L113.288 38.458C113.703 37.7972 114.291 37.4668 115.052 37.4668C115.298 37.4668 115.485 37.4987 115.612 37.5625V38.7383ZM116.31 41.2334C116.31 40.5088 116.451 39.8571 116.733 39.2783C117.021 38.6995 117.417 38.2529 117.923 37.9385C118.433 37.624 119.014 37.4668 119.666 37.4668C120.673 37.4668 121.487 37.8154 122.106 38.5127C122.731 39.21 123.043 40.1374 123.043 41.2949V41.3838C123.043 42.1038 122.904 42.751 122.626 43.3252C122.353 43.8949 121.958 44.3392 121.443 44.6582C120.933 44.9772 120.345 45.1367 119.68 45.1367C118.677 45.1367 117.864 44.7881 117.239 44.0908C116.619 43.3936 116.31 42.4707 116.31 41.3223V41.2334ZM117.581 41.3838C117.581 42.2041 117.77 42.8626 118.148 43.3594C118.531 43.8561 119.042 44.1045 119.68 44.1045C120.322 44.1045 120.833 43.8538 121.211 43.3525C121.589 42.8467 121.778 42.1403 121.778 41.2334C121.778 40.4222 121.585 39.766 121.197 39.2646C120.814 38.7588 120.304 38.5059 119.666 38.5059C119.042 38.5059 118.538 38.7542 118.155 39.251C117.772 39.7477 117.581 40.4587 117.581 41.3838ZM130.891 41.3838C130.891 42.514 130.631 43.4232 130.111 44.1113C129.592 44.7949 128.895 45.1367 128.02 45.1367C127.085 45.1367 126.363 44.8063 125.853 44.1455L125.791 45H124.629V34.5H125.894V38.417C126.404 37.7835 127.108 37.4668 128.006 37.4668C128.904 37.4668 129.608 37.8063 130.118 38.4854C130.633 39.1644 130.891 40.0941 130.891 41.2744V41.3838ZM129.626 41.2402C129.626 40.3789 129.46 39.7135 129.127 39.2441C128.794 38.7747 128.316 38.54 127.691 38.54C126.857 38.54 126.258 38.9274 125.894 39.7021V42.9014C126.281 43.6761 126.885 44.0635 127.705 44.0635C128.311 44.0635 128.783 43.8288 129.12 43.3594C129.457 42.89 129.626 42.1836 129.626 41.2402ZM132.155 41.2334C132.155 40.5088 132.297 39.8571 132.579 39.2783C132.866 38.6995 133.263 38.2529 133.769 37.9385C134.279 37.624 134.86 37.4668 135.512 37.4668C136.519 37.4668 137.332 37.8154 137.952 38.5127C138.576 39.21 138.889 40.1374 138.889 41.2949V41.3838C138.889 42.1038 138.75 42.751 138.472 43.3252C138.198 43.8949 137.804 44.3392 137.289 44.6582C136.779 44.9772 136.191 45.1367 135.525 45.1367C134.523 45.1367 133.709 44.7881 133.085 44.0908C132.465 43.3936 132.155 42.4707 132.155 41.3223V41.2334ZM133.427 41.3838C133.427 42.2041 133.616 42.8626 133.994 43.3594C134.377 43.8561 134.887 44.1045 135.525 44.1045C136.168 44.1045 136.678 43.8538 137.057 43.3525C137.435 42.8467 137.624 42.1403 137.624 41.2334C137.624 40.4222 137.43 39.766 137.043 39.2646C136.66 38.7588 136.15 38.5059 135.512 38.5059C134.887 38.5059 134.384 38.7542 134.001 39.251C133.618 39.7477 133.427 40.4587 133.427 41.3838ZM142.19 35.8125V37.6035H143.571V38.5811H142.19V43.168C142.19 43.4642 142.252 43.6875 142.375 43.8379C142.498 43.9837 142.708 44.0566 143.004 44.0566C143.15 44.0566 143.35 44.0293 143.605 43.9746V45C143.273 45.0911 142.949 45.1367 142.635 45.1367C142.07 45.1367 141.644 44.9658 141.356 44.624C141.069 44.2822 140.926 43.7969 140.926 43.168V38.5811H139.579V37.6035H140.926V35.8125H142.19Z" fill="black"/>
<rect x="15" y="26" width="26" height="26" rx="1" fill="white" stroke="#C1C1C1" stroke-width="2"/>
<defs>
<filter id="filter0_d" x="0" y="0" width="307" height="80" filterUnits="userSpaceOnUse" color-interpolation-filters="sRGB">
<feFlood flood-opacity="0" result="BackgroundImageFix"/>
<feColorMatrix in="SourceAlpha" type="matrix" values="0 0 0 0 0 0 0 0 0 0 0 0 0 0 0 0 0 0 127 0"/>
<feOffset dy="1"/>
<feGaussianBlur stdDeviation="1"/>
<feColorMatrix type="matrix" values="0 0 0 0 0 0 0 0 0 0 0 0 0 0 0 0 0 0 0.101138 0"/>
<feBlend mode="normal" in2="BackgroundImageFix" result="effect1_dropShadow"/>
<feBlend mode="normal" in="SourceGraphic" in2="effect1_dropShadow" result="shape"/>
</filter>
<filter id="filter1_d" x="256.16" y="11" width="23.99" height="16.7091" filterUnits="userSpaceOnUse" color-interpolation-filters="sRGB">
<feFlood flood-opacity="0" result="BackgroundImageFix"/>
<feColorMatrix in="SourceAlpha" type="matrix" values="0 0 0 0 0 0 0 0 0 0 0 0 0 0 0 0 0 0 127 0"/>
<feOffset/>
<feGaussianBlur stdDeviation="0.5"/>
<feColorMatrix type="matrix" values="0 0 0 0 0 0 0 0 0 0 0 0 0 0 0 0 0 0 0.5 0"/>
<feBlend mode="normal" in2="BackgroundImageFix" result="effect1_dropShadow"/>
<feBlend mode="normal" in="SourceGraphic" in2="effect1_dropShadow" result="shape"/>
</filter>
<filter id="filter2_d" x="248.385" y="11.0408" width="16.6868" height="19.238" filterUnits="userSpaceOnUse" color-interpolation-filters="sRGB">
<feFlood flood-opacity="0" result="BackgroundImageFix"/>
<feColorMatrix in="SourceAlpha" type="matrix" values="0 0 0 0 0 0 0 0 0 0 0 0 0 0 0 0 0 0 127 0"/>
<feOffset/>
<feGaussianBlur stdDeviation="0.5"/>
<feColorMatrix type="matrix" values="0 0 0 0 0 0 0 0 0 0 0 0 0 0 0 0 0 0 0.5 0"/>
<feBlend mode="normal" in2="BackgroundImageFix" result="effect1_dropShadow"/>
<feBlend mode="normal" in="SourceGraphic" in2="effect1_dropShadow" result="shape"/>
</filter>
<filter id="filter3_d" x="248.422" y="26.1727" width="28.0189" height="16.7091" filterUnits="userSpaceOnUse" color-interpolation-filters="sRGB">
<feFlood flood-opacity="0" result="BackgroundImageFix"/>
<feColorMatrix in="SourceAlpha" type="matrix" values="0 0 0 0 0 0 0 0 0 0 0 0 0 0 0 0 0 0 127 0"/>
<feOffset/>
<feGaussianBlur stdDeviation="0.5"/>
<feColorMatrix type="matrix" values="0 0 0 0 0 0 0 0 0 0 0 0 0 0 0 0 0 0 0.382529 0"/>
<feBlend mode="normal" in2="BackgroundImageFix" result="effect1_dropShadow"/>
<feBlend mode="normal" in="SourceGraphic" in2="effect1_dropShadow" result="shape"/>
</filter>
</defs>
</svg>
